<svg xmlns="http://www.w3.org/2000/svg" xmlns:xlink="http://www.w3.org/1999/xlink" id="Facebook_1_" width="1024" height="1023.998" enable-background="new 0 0 1024 1023.998" version="1.1" viewBox="0 0 1024 1023.998" xml:space="preserve"><g id="Background"><linearGradient id="bg_1_" x1="464.295" x2="-194.104" y1="-72.754" y2="711.838" gradientTransform="matrix(0.9397 0.3421 0.3421 -0.9397 275.7368 766.0569)" gradientUnits="userSpaceOnUse"><stop offset="0" style="stop-color:#091435"/><stop offset=".168" style="stop-color:#0e1a3e"/><stop offset=".441" style="stop-color:#1b2c56"/><stop offset=".784" style="stop-color:#30497e"/><stop offset="1" style="stop-color:#3f5d9a"/></linearGradient><circle id="bg" cx="512.001" cy="511.999" r="512" fill="url(#bg_1_)"/></g><path id="Facebook" fill="#FFF" d="M672.75,305.64V203.89c-3.736,0-7.473-0.007-11.209,0.001 c-8.996,0.02-17.993-0.022-26.99,0.001c-10.972,0.028-21.942-0.046-32.915,0.001c-9.667,0.042-19.337-0.097-29.003,0.003 c-14.592,0.151-28.443,0.868-42.438,5.375c-13.493,4.346-26.158,11.955-36.948,21.081c-6.248,5.284-12.031,10.943-17.269,17.234 c-2.121,2.613-4.097,5.33-5.942,8.14c-5.538,8.431-9.913,17.704-13.567,27.535c-0.821,2.213-1.628,4.432-2.397,6.662 c-5.634,16.324-5.82,34.143-5.82,51.297c0,2.148,0,4.363,0,6.629c0,33.984,0,79.291,0,79.291h-97v112h93.5h2.5v281h111v-283.5 L659,537.999l13.583-110.125L558.75,427.64v-85c0,0-0.25-36.25,30.5-36.75L672.75,305.64z"/></svg>