<svg xmlns="http://www.w3.org/2000/svg" xmlns:xlink="http://www.w3.org/1999/xlink" id="Youtube_1_" width="1024" height="1024" enable-background="new 0 0 1024 1024" version="1.1" viewBox="0 0 1024 1024" xml:space="preserve"><g id="Background"><linearGradient id="bg_1_" x1="608.138" x2="-50.278" y1="132.354" y2="916.979" gradientTransform="matrix(0.9397 0.342 0.342 -0.9397 70.4559 909.6346)" gradientUnits="userSpaceOnUse"><stop offset="0" style="stop-color:#740700"/><stop offset=".157" style="stop-color:#7d0a03"/><stop offset=".412" style="stop-color:#95120c"/><stop offset=".732" style="stop-color:#bd1f1a"/><stop offset="1" style="stop-color:#e32b27"/></linearGradient><circle id="bg" cx="512.001" cy="512" r="512" fill="url(#bg_1_)"/></g><path id="Youtube" fill="#FFF" d="M625.91,299.833c-58.021-1.709-116.071-2.112-174.105-1.209 c-164.298,3.127-233.243,0.604-241.519,126.994c-1.786,53.471-1.916,106.815-0.387,160.269 c8.198,137.809,52.407,135.276,241.907,139.573c52.921,0.824,105.855,0.561,158.77-0.788 c133.299-3.671,195.297-0.43,203.528-138.859c1.525-53.427,1.396-106.749-0.39-160.193 C805.47,298.718,733.983,302.912,625.91,299.833z M450.41,590.845c-0.321-57.301-0.292-114.636,0.087-171.931 c53.289,28.274,107.172,57.39,160.931,85.99C557.715,533.411,503.803,562.511,450.41,590.845z"/></svg>